<svg width="27" height="26" viewBox="0 0 27 26" fill="none" xmlns="http://www.w3.org/2000/svg">
<g clip-path="url(#clip0_1_4947)">
<path d="M14.051 6.99902H14.14C14.962 7.00202 19.127 7.03202 20.25 7.33402C20.5895 7.42619 20.8989 7.60585 21.1472 7.85503C21.3955 8.10422 21.574 8.41421 21.665 8.75402C21.766 9.13402 21.837 9.63702 21.885 10.156L21.895 10.26L21.917 10.52L21.925 10.624C21.99 11.538 21.998 12.394 21.999 12.581V12.656C21.998 12.85 21.989 13.764 21.917 14.716L21.909 14.821L21.9 14.925C21.85 15.497 21.776 16.065 21.665 16.483C21.5743 16.823 21.3958 17.1331 21.1475 17.3823C20.8991 17.6316 20.5896 17.8111 20.25 17.903C19.09 18.215 14.681 18.237 14.07 18.238H13.928C13.619 18.238 12.341 18.232 11.001 18.186L10.831 18.18L10.744 18.176L10.573 18.169L10.402 18.162C9.292 18.113 8.235 18.034 7.748 17.902C7.40849 17.8102 7.09907 17.6308 6.85072 17.3818C6.60238 17.1327 6.42385 16.8228 6.333 16.483C6.222 16.066 6.148 15.497 6.098 14.925L6.09 14.82L6.082 14.716C6.03265 14.0384 6.0053 13.3594 6 12.68L6 12.557C6.002 12.342 6.01 11.599 6.064 10.779L6.071 10.676L6.074 10.624L6.082 10.52L6.104 10.26L6.114 10.156C6.162 9.63702 6.233 9.13302 6.334 8.75402C6.42469 8.41407 6.60316 8.10393 6.85151 7.85471C7.09986 7.60548 7.40937 7.42592 7.749 7.33402C8.236 7.20402 9.293 7.12402 10.403 7.07402L10.573 7.06702L10.745 7.06102L10.831 7.05802L11.002 7.05102C11.9537 7.0204 12.9058 7.0034 13.858 7.00002H14.051V6.99902ZM12.4 10.209V15.027L16.557 12.619L12.4 10.209Z" fill="white"/>
</g>
<defs>
<clipPath id="clip0_1_4947">
<rect width="16" height="16" fill="white" transform="translate(5.5 5)"/>
</clipPath>
</defs>
</svg>
